<?xml version="1.0" encoding="utf-8"?>
<!-- Generator: Adobe Illustrator 18.1.1, SVG Export Plug-In . SVG Version: 6.00 Build 0)  -->
<!DOCTYPE svg PUBLIC "-//W3C//DTD SVG 1.1//EN" "http://www.w3.org/Graphics/SVG/1.1/DTD/svg11.dtd">
<svg version="1.1" xmlns="http://www.w3.org/2000/svg" xmlns:xlink="http://www.w3.org/1999/xlink" x="0px" y="0px"
	 viewBox="0 0 100 100" style="enable-background:new 0 0 100 100;" xml:space="preserve">
<g id="animal">
	<g>
		<g>
			<path d="M88.02,55.233c-0.522-3.203-1.671-6.198-3.074-9.103c-2.205-4.567-5.043-8.717-8.315-12.579
				c-0.122-0.144-0.237-0.294-0.387-0.481c1.992-0.132,3.511,0.788,5.004,1.804c-0.111-0.256-0.244-0.464-0.394-0.657
				c-1.54-1.981-3.559-3.374-5.707-4.593c-3.381-1.919-7-3.253-10.741-4.278c-0.233-0.064-0.464-0.133-0.734-0.21
				c2.729-3.908,6.176-6.896,10.395-9.008c-0.15-0.03-0.27-0.018-0.388,0.005c-2.524,0.482-4.903,1.391-7.202,2.512
				c-2.461,1.201-4.779,2.638-6.621,4.69c-0.611,0.68-1.153,0.931-2.029,0.736c-0.649-0.144-1.339-0.108-2.064-0.156
				c0.697-1.299,1.536-2.429,2.56-3.388c1.036-0.969,2.135-1.881,3.281-2.716c1.116-0.813,2.327-1.497,3.579-2.29
				c-2.439,0.62-4.714,1.399-6.891,2.455c-2.873,1.394-5.485,3.169-7.787,5.384c-0.422,0.406-0.869,0.576-1.431,0.616
				c-1.761,0.124-3.505,0.373-5.184,0.945c-0.788,0.268-1.563,0.574-2.439,0.898c-0.038-1.799,1.323-2.844,2.111-4.254
				c-1.296,0.635-2.385,1.413-3.384,2.319c-1.004,0.911-1.92,1.896-2.509,3.14c-0.558-1.534-0.09-2.803,0.932-3.956
				c-0.209,0.048-0.357,0.121-0.493,0.213c-1.567,1.066-2.668,2.51-3.411,4.237c-0.289,0.672-0.505,1.361-0.32,2.116
				c0.028,0.115-0.076,0.287-0.161,0.4c-0.446,0.593-0.928,1.16-1.355,1.767c-0.932,1.325-1.764,2.728-2.772,3.99
				c-1.676,2.099-3.555,4-6.005,5.232c-0.279,0.14-0.484,0.159-0.761,0.008c-0.874-0.475-1.717-0.429-2.497,0.23
				c-0.472,0.399-0.933,0.813-1.424,1.187c-1.091,0.833-2.208,1.18-3.478,0.29c-0.773-0.542-1.394-0.458-2.177,0.109
				C12.783,43.547,12,44.469,12,45.589c0,0.278,0,0.557,0,0.835c0-0.245,0.191-0.539,0.445-0.721
				c0.213-0.152,0.422-0.174,0.687-0.253c0.068,0.253,0.175,0.521,0.137,0.757c-0.079,0.484-0.292,0.949-0.425,1.425
				c-0.382,1.364-0.252,2.627,0.683,3.756c0.114,0.138,0.09,0.382,0.142,0.575c0.097,0.36,0.188,0.722,0.302,1.077
				c0.062,0.194,0.205,0.37,0.235,0.566c0.133,0.87,0.557,1.535,1.373,2.1c0-0.332,0.008-0.557-0.002-0.78
				c-0.016-0.339-0.072-0.678-0.063-1.016c0.013-0.498,0.252-0.896,0.756-0.983c1.182-0.204,2.374-0.355,3.582-0.53
				c0.28,1.484,1.317,2.229,2.504,2.926c-0.069-0.677-0.156-1.287-0.188-1.9c-0.051-0.958,0.395-1.629,1.269-2.011
				c0.34-0.148,0.689-0.275,1.039-0.398c1.586-0.558,2.978-1.411,4.149-2.632c0.533-0.556,1.118-1.07,1.717-1.555
				c1.827-1.479,3.924-2.468,6.139-3.185c1.376-0.445,2.788-0.821,4.212-1.067c1.83-0.316,3.225,0.625,4.535,1.885
				c-1.275,0.589-2.482,1.181-3.716,1.71c-2.959,1.269-5.579,3.043-7.968,5.189c-1.644,1.477-3.296,2.951-5.02,4.332
				c-2.823,2.26-6.04,3.523-9.7,3.526c-0.096,0-0.193,0.031-0.345,0.057c0.847,0.739,1.694,1.377,2.704,1.702
				c0.604,0.194,1.272,0.298,1.904,0.27c1.201-0.053,2.395-0.272,3.596-0.344c2.042-0.122,3.989-0.505,5.668-1.767
				c0.84-0.632,1.701-1.24,2.502-1.919c1.948-1.653,4.103-2.975,6.4-4.069c1.903-0.906,3.882-1.536,6.034-1.371
				c1.297,0.1,2.502,0.545,3.697,1.015c1.452,0.571,2.922,0.782,4.35,0.017c2.05-1.098,3.764-2.564,5.122-4.505
				c1.07-1.531,1.49-3.121,1.267-4.932c-0.013-0.105,0.016-0.214,0.038-0.45c0.57,0.969,0.677,1.899,0.571,2.847
				c-0.337,3.032-1.896,5.294-4.492,6.906c0.166,0.159,0.3,0.285,0.431,0.413c1.813,1.769,2.344,3.829,1.407,6.219
				c-0.631,1.609-1.664,2.96-2.788,4.241c-2.191,2.496-4.715,4.638-7.269,6.745c-4.031,3.326-8.111,6.594-12.092,9.978
				c-1.582,1.345-3.114,2.741-4.571,4.209c4.866-1.947,14.372-4.856,27.765-4.856c7.706,0,13.818,2.84,16.835,4.574
				c2.138-4.011,3.626-8.251,4.071-12.862c0.024-0.25,0.066-0.499,0.109-0.816c0.944,0.833,1.501,1.826,1.807,2.931
				c0.388,1.403,0.46,2.842,0.46,4.281c0,0.176,0,0.352,0,0.528c0,0.016,0.057,0.032,0.114,0.048
				c0.252-0.482,0.524-0.945,0.719-1.449c0.637-1.647,0.824-3.381,0.929-5.129c0.167-2.787,0.004-5.563-0.29-8.334
				c-0.395-3.725-1.011-7.411-2.04-11.019c-0.041-0.143-0.071-0.29-0.12-0.494c0.157,0.069,0.252,0.106,0.344,0.152
				c1.682,0.843,2.996,2.058,3.837,3.761c0.163,0.331,0.37,0.641,0.557,0.96c0.042-0.018,0.084-0.036,0.126-0.054
				C88.124,56.212,88.099,55.718,88.02,55.233z M23.491,44.378c-1.345-0.359-2.641-0.266-3.89,0.407
				c0.445-0.776,0.934-1.499,1.699-1.971c0.521-0.321,1.014-0.271,1.418,0.19c0.338,0.387,0.59,0.85,0.88,1.28
				C23.562,44.315,23.527,44.346,23.491,44.378z"/>
			<path style="fill:#FFFFFF;" d="M21.3,42.813c-0.765,0.472-1.255,1.196-1.699,1.971c1.249-0.673,2.545-0.766,3.89-0.407
				c0.036-0.031,0.072-0.063,0.107-0.094c-0.29-0.43-0.542-0.893-0.88-1.28C22.315,42.542,21.821,42.492,21.3,42.813z"/>
		</g>
		<g>
			<circle style="fill:#FFFFFF;" cx="40.923" cy="34.358" r="3.907"/>
			<circle cx="40.923" cy="34.358" r="2.081"/>
		</g>
	</g>
</g>
</svg>
