<?xml version="1.0" encoding="utf-8"?>
<!-- Generator: Adobe Illustrator 17.1.0, SVG Export Plug-In . SVG Version: 6.00 Build 0)  -->
<!DOCTYPE svg PUBLIC "-//W3C//DTD SVG 1.1//EN" "http://www.w3.org/Graphics/SVG/1.1/DTD/svg11.dtd">
<svg version="1.1" xmlns="http://www.w3.org/2000/svg" xmlns:xlink="http://www.w3.org/1999/xlink" x="0px" y="0px"
	 viewBox="0 0 100 100" style="enable-background:new 0 0 100 100;" xml:space="preserve">
<g id="animal">
	<g>
		<g>
			<path d="M55.219,82.692c-1.472-0.454-4.035-1.157-4.909-2.564c-0.313-0.504,0.264-1.131,0.2-1.706
				c-0.115-1.033-0.89-2.083-1.862-2.466c-1.929-0.761-4.327,1.168-5.98,1.977c-1.931,0.945-3.768,1.749-5.923,1.986
				c-4.192,0.461-4.367-4.066-5.48-6.867c-0.96-2.415-4.638-1.018-6.204-2.886c-1.069-1.275-0.614-3.357-0.418-4.829
				c0.341-2.56,0.932-5.38,1.081-7.961c-0.333,0.286-0.754,0.051-2.144,1.145c-0.734-2.812,0.535-4.736,0.531-4.703
				c-0.496,0.112-1.547,0.531-1.984,1.391c-0.213-0.19-0.581-1.856-0.104-3.513c-1.021,0.279-1.521,1.435-1.724,2.404
				c-0.815-2.282-0.008-4.398,0.774-6.532c0.345-0.94-1.67-1.613-2.213-2.224c-0.934-1.051-0.752-2.251-1.426-3.345
				c-1.122-1.82-1.197-5.111,0.535-6.74c0.952-0.895,2.442-0.911,3.491-1.756c1.139-0.916,1.966-2.152,2.975-3.197
				c2.287-2.367,4.191-2.055,7.167-2.322c3.115-0.28,5.456-2.033,8.724-1.712c1.724,0.17,3.434,0.41,5.166,0.506
				c1.305,0.072,5.524-7.21,8.774-8.335c-1.188,2.75-2.812,5.469-3.406,8.875c2.281-3.406,11.469-11.656,24.439-9.718
				c-9.377,3.655-18.252,8.499-19.733,12.062c3.856-2.532,18.879-7.596,27.235-2.636c-2.997,1.801-7.659,1.543-11.092,2.186
				c-4.161,0.779-8.233,1.833-12.077,3.617c0.231,0.347,0.393,0.592,0.548,0.823c8.541-1.503,18.316-2.651,25.849,2.542
				c-9.71,1.322-18.659,1.601-22.44,2.676c0.58,0.707,1.083,1.354,1.234,2.06C73,38.445,83.112,37.901,90.47,42.894
				c-2.629,1.419-17.765,1.022-21.586,2.649c0.474,0.478,0.927,1.14,1.436,1.993c4.375-0.75,12.438-2.941,22.263,2.153
				c-7.501,0.869-14.083-0.022-19.167,2.645c0.123,1.511,1.355,2.884,1.478,4.395c0.051,0.632,0.642,3.038,0.2,3.538
				c-1.921,2.167-3.841,4.334-5.762,6.501C64.628,72.076,59.923,77.384,55.219,82.692z"/>
		</g>
		<g>
			<circle style="fill:#FFFFFF;" cx="38.552" cy="37.924" r="5.755"/>
			<circle cx="38.552" cy="37.924" r="3.064"/>
		</g>
		<path style="fill:#FFFFFF;" d="M30.658,70.645c-1.297-0.5-2.133-0.649-3.236-0.863c-1.125-0.219-1.606-0.838-1.676-1.979
			c-0.133-2.149,0.388-4.217,0.733-6.308c0.233-1.412,0.735-2.84,0.316-4.262c-0.205-0.697,0.026-1.04,0.482-1.359
			c0.957-0.67,1.928-1.324,2.929-1.925c0.184-0.11,0.613-0.032,0.8,0.119c1.138,0.921,2.396,1.583,3.801,1.99
			c0.208,0.06,0.457,0.281,0.525,0.482c1.094,3.24,1.024,6.358-1.07,9.229C33.127,67.325,31.759,69.158,30.658,70.645z"/>
		<path style="fill:#FFFFFF;" d="M41.51,61.867c0.477,1.067,0.426,2.4,0.482,3.619c0.169,3.724-0.32,7.362-1.564,10.892
			c-0.169,0.479-0.417,0.796-0.909,0.913c-1.014,0.241-2.016,0.587-3.044,0.698c-1.477,0.161-2.678-1.25-2.71-2.583
			c-0.082-3.425,0.829-6.625,2.004-9.765c1.101-2.942,1.484-5.871,0.284-8.883C39.268,57.567,40.622,59.882,41.51,61.867z"/>
		<path style="fill:#FFFFFF;" d="M81.563,35.507c-9.711-2.239-13.271,1.514-16.883,1.29c-1.951-0.057-2.66-1.51-3.449-2.41
			C63.313,34.218,75.065,32.003,81.563,35.507z"/>
		<path style="fill:#FFFFFF;" d="M77.354,26.823c-9.893-0.731-12.498,3.35-17.013,3.842c-1.852,0.26-2.738-0.604-3.416-1.05
			C61.814,27.454,71.356,24.577,77.354,26.823z"/>
		<path style="fill:#FFFFFF;" d="M88.928,48.912c-6.168-0.268-9.733-0.129-12.715,0.884c-1.785,0.607-3.884,0.277-5.073-1.095
			C76.688,47.072,86.751,48.308,88.928,48.912z"/>
		<path style="fill:#FFFFFF;" d="M32.974,74.689c-0.396-1.301-0.49-2.707-1.759-3.61c1.398-1.885,2.645-3.8,4.147-5.825
			C34.063,68.395,33.129,71.459,32.974,74.689z"/>
		<path style="fill:#FFFFFF;" d="M49.944,60.661c0.102-1.037,1.319-1.028,2.173-1.158c0.787-0.12,1.606-0.026,2.414,0.054
			c-1.825,0.182-3.301,1.69-3.981,1.697C50.143,61.259,49.908,61.02,49.944,60.661z"/>
		<path style="fill:#FFFFFF;" d="M20.978,38.623c-0.313,0.417-0.903,0.104-1.117-0.479c-0.44-1.196,2.096-1.4,3.281-0.296
			C22.175,37.849,20.215,37.894,20.978,38.623z"/>
		<path style="fill:#FFFFFF;" d="M46.251,46.199c0.504,0.096,0.924,0.132,1.316,0.258c0.916,0.295,1.371,1.2,1.042,2.194
			c-0.663,1.997-1.965,3.464-3.916,4.269c-1.168,0.482-2.345,0.258-3.385-0.409c-0.674-0.432-1.292-0.971-1.867-1.532
			c-0.38-0.371-0.464-0.94-0.025-1.312C41.434,47.96,43.622,46.568,46.251,46.199z"/>
		<path style="fill:#FFFFFF;" d="M38.011,53.251c-1.171-0.256-1.861-0.815-2.146-1.785c-0.281-0.958,0.368-1.586,0.912-2.387
			C37.888,50.317,37.799,51.759,38.011,53.251z"/>
		<path style="fill:#FFFFFF;" d="M40.157,45.895c-0.053,0.97-1.19,2.312-2.141,2.578C37.733,47.401,38.679,46.237,40.157,45.895z"/>
		<path style="fill:#FFFFFF;" d="M22.031,47.323c-0.857,0.962-1.792,3.601-1.701,5.244c0.828-1.5,2.978-3.902,3.219-3.938
			c-0.202,0.506-1.406,4.078-1.328,5.781c0.75-0.984,4.373-3.799,4.536-3.833c-0.014,0.305-3.49,5.661-2.88,7.177
			c1.913-2.287,3.976-3.802,6.453-4.613C28.178,50.294,25.992,47.567,22.031,47.323z"/>
		<path style="fill:#FFFFFF;" d="M47.444,26.458c0.538,0.027,1.157,0.517,2.205-0.054c1.284-1.192,0.487-3.041,3.056-6.05
			C50.806,21.591,48.211,25.119,47.444,26.458z"/>
		<path style="fill:#FFFFFF;" d="M84.383,41.954c-8.425-2.037-11.673,1.184-14.895,1.36c-1.734,0.127-3.031-0.997-3.757-1.851
			C67.646,41.302,78.407,38.625,84.383,41.954z"/>
		<path style="fill:#FFFFFF;" d="M52.437,26.467c0.542,0.115,1.368,0.678,2.443,0.3c3.629-1.69,7.297-7.609,15.759-8.702
			C66.102,17.221,55.242,22.197,52.437,26.467z"/>
	</g>
</g>
</svg>
