<?xml version="1.0" encoding="utf-8"?>
<!-- Generator: Adobe Illustrator 17.1.0, SVG Export Plug-In . SVG Version: 6.00 Build 0)  -->
<!DOCTYPE svg PUBLIC "-//W3C//DTD SVG 1.1//EN" "http://www.w3.org/Graphics/SVG/1.1/DTD/svg11.dtd">
<svg version="1.1" xmlns="http://www.w3.org/2000/svg" xmlns:xlink="http://www.w3.org/1999/xlink" x="0px" y="0px"
	 viewBox="0 0 100 100" style="enable-background:new 0 0 100 100;" xml:space="preserve">
<g id="animal">
	<g>
		<g>
			<g>
				<path d="M77.725,58.309c0,1.337-1.367,2.561-1.551,3.848c-0.188,1.317,0.777,2.875,0.41,4.127
					c-0.373,1.272-2.029,2.062-2.574,3.252c-0.55,1.203-0.065,2.972-0.776,4.074c-0.714,1.109-2.525,1.399-3.387,2.393
					c-0.863,0.994-0.895,2.828-1.889,3.691c-0.993,0.861-2.814,0.633-3.924,1.348c-1.103,0.71-1.646,2.462-2.85,3.013
					c-1.19,0.544-2.869-0.189-4.143,0.186c-1.251,0.366-2.27,1.893-3.587,2.081c-1.286,0.184-2.691-0.994-4.027-0.994
					s-2.741,1.178-4.027,0.994c-1.317-0.188-2.336-1.715-3.588-2.082c-1.272-0.373-2.953,0.359-4.143-0.186
					c-1.203-0.55-1.747-2.302-2.85-3.013c-1.109-0.714-2.93-0.485-3.923-1.347c-0.995-0.863-1.025-2.698-1.889-3.693
					c-0.86-0.993-2.673-1.282-3.387-2.392c-0.711-1.103-0.227-2.871-0.776-4.074c-0.544-1.189-2.201-1.979-2.574-3.252
					c-0.366-1.251,0.599-2.809,0.411-4.126c-0.184-1.286-1.551-2.511-1.551-3.848c0-1.454,1.385-2.872,1.602-4.407
					c0.204-1.454-0.749-3.183-0.364-4.669c0.371-1.434,2.042-2.494,2.567-3.922c0.517-1.402-0.071-3.289,0.581-4.651
					c0.65-1.357,2.49-2.079,3.265-3.364c0.782-1.297,0.566-3.265,1.464-4.454c0.917-1.218,2.864-1.543,3.889-2.613
					c1.061-1.106,1.319-3.07,2.481-3.98c1.21-0.947,3.161-0.706,4.465-1.393c1.353-0.713,2.287-2.457,3.723-2.842
					c1.451-0.389,3.106,0.661,4.624,0.661c1.519,0,3.173-1.05,4.624-0.66c1.436,0.384,2.371,2.128,3.724,2.841
					c1.303,0.688,3.254,0.446,4.464,1.393c1.161,0.909,1.42,2.873,2.479,3.979c1.025,1.069,2.972,1.394,3.89,2.611
					c0.896,1.189,0.681,3.156,1.463,4.453c0.775,1.285,2.614,2.008,3.266,3.364c0.653,1.362,0.065,3.25,0.581,4.652
					c0.526,1.429,2.197,2.488,2.569,3.923c0.385,1.487-0.568,3.217-0.364,4.671C76.34,55.437,77.725,56.854,77.725,58.309z"/>
			</g>
			<path d="M88.516,27.794c0.497,2.614,0.584,7.563-8.132,9.221c-8.715,1.657-18.476-1.452-18.973-4.065
				c-0.497-2.615,6.166-6.078,14.881-7.735C85.008,23.557,88.019,25.179,88.516,27.794z"/>
			<path d="M11.082,26.213c-0.487,2.616-0.558,7.566,8.165,9.191c8.722,1.624,18.469-1.522,18.957-4.139
				c0.486-2.616-6.188-6.053-14.91-7.679C14.571,21.963,11.568,23.599,11.082,26.213z"/>
		</g>
		<g>
			<g>
				<circle style="fill:#FFFFFF;" cx="40.738" cy="44.565" r="7.821"/>
				<circle cx="40.738" cy="44.565" r="4.165"/>
			</g>
			<g>
				<path style="fill:#FFFFFF;" d="M64.362,44.801c0,3.771-3.06,6.831-6.835,6.831c-3.772,0-6.832-3.06-6.832-6.831
					c0-3.776,3.06-6.836,6.832-6.836C61.303,37.965,64.362,41.024,64.362,44.801z"/>
				<circle cx="57.528" cy="44.801" r="3.64"/>
			</g>
		</g>
		<circle style="fill:#FFFFFF;" cx="36.39" cy="70.771" r="2.999"/>
		<circle style="fill:#FFFFFF;" cx="60.525" cy="71.586" r="2.999"/>
	</g>
</g>
</svg>
