<?xml version="1.0" encoding="utf-8"?>
<!-- Generator: Adobe Illustrator 17.1.0, SVG Export Plug-In . SVG Version: 6.00 Build 0)  -->
<!DOCTYPE svg PUBLIC "-//W3C//DTD SVG 1.1//EN" "http://www.w3.org/Graphics/SVG/1.1/DTD/svg11.dtd">
<svg version="1.1" xmlns="http://www.w3.org/2000/svg" xmlns:xlink="http://www.w3.org/1999/xlink" x="0px" y="0px"
	 viewBox="0 0 100 100" style="enable-background:new 0 0 100 100;" xml:space="preserve">
<g id="animal">
	<path d="M50,61.625c-2.312,3.25-5.037,4.557-7.625,7c-3.118,2.944-6.535,6.989-9.458,10.042c-0.379,0.396-0.599-0.363-0.965,0.039
		c-1.744,1.911-3.223,6.771-5.514,5.794c-0.609-0.26,1.504-2.598,1.125-2.938c-2.646,1.646,4.406-10.955,6.601-15.042
		c1.517-2.825,3.017-5.21,4.399-7.583c1.568-2.691,4.041-5.724,5.754-8.483c-0.281-0.611-0.512-1.787-1.216-2.486
		c-0.664-0.659-5.035-3.378-8.844-5.792c-0.261-0.166,2.247-0.483,1.993-0.645c-0.18-0.115-3.126-0.075-3.301-0.187
		c-1.351-0.862-2.554-1.643-3.386-2.22c-0.712-0.493-1.604-1.144-2.589-1.881c-0.081-0.061,1.453-0.276,1.371-0.337
		c-0.24-0.18-2.102-0.212-2.351-0.401c-1.174-0.888-2.433-1.858-3.655-2.805c-0.19-0.147,1.632-0.023,1.444-0.169
		c-0.23-0.179-2.469-0.627-2.694-0.802c-2.069-1.611-3.895-3.046-4.818-3.752c9.021,2.47,17.688,4.842,26.151,7.159
		c-0.376-1.803-1.012-3.859-1.239-5.966c-0.023-0.211,1.873,0.126,1.86-0.086c-0.011-0.169-1.949-0.943-1.981-1.212
		c-0.099-0.816-0.285-2.039-0.494-3.328c-0.042-0.262,1.186-0.239,1.143-0.503c-0.028-0.169-1.328-0.626-1.356-0.794
		c-0.394-2.357-0.789-4.56-0.789-4.56s13.469,10.438,17.395,16.659c0.494-1.166-0.038-2.977,0.489-4.444
		c1.178-3.277,4.72-4.818,9.992-3.009c1.017,0.314,3.21,1.343,4.272,1.181c3.669-0.561,7.316-1.265,10.972-1.914
		c0.044,0.184,0.089,0.369,0.133,0.554c-1.003,0.29-11.083,3.709-13.792,7.584c-1.993,2.852-3.894,5.461-4.12,9.167
		c-0.194,3.187-1.223,6.261-3.408,8.655c-2.608,2.857-4.686,5.867-7.183,8.819c-1.062,1.256-2.45,0.044-3.371,0.159
		C50.718,63.124,50.381,62.244,50,61.625z"/>
	<g>
		<circle style="fill:#FFFFFF;" cx="62.02" cy="32.597" r="2.513"/>
		<circle cx="62.02" cy="32.597" r="1.339"/>
	</g>
</g>
</svg>
