<?xml version="1.0" encoding="utf-8"?>
<!-- Generator: Adobe Illustrator 17.1.0, SVG Export Plug-In . SVG Version: 6.00 Build 0)  -->
<!DOCTYPE svg PUBLIC "-//W3C//DTD SVG 1.1//EN" "http://www.w3.org/Graphics/SVG/1.1/DTD/svg11.dtd">
<svg version="1.1" xmlns="http://www.w3.org/2000/svg" xmlns:xlink="http://www.w3.org/1999/xlink" x="0px" y="0px"
	 viewBox="0 0 100 100" style="enable-background:new 0 0 100 100;" xml:space="preserve">
<g id="animal">
	<path d="M85.25,21.167c0-4.256-4.083-0.75-8.583,1.436c-3.231,1.569-5.864,0.502-7.542,2.772
		c-4.033-2.113-11.128-1.722-15.973-2.182c-0.393-0.036-0.788-1.963-1.185-1.988c-0.435-0.027-0.871,1.849-1.31,1.837
		c-0.347-0.009-0.696-0.014-1.045-0.014c-0.356,0-1.723-3.787-2.077-3.776c-0.452,0.013,0.108,3.825-0.338,3.854
		c-5.009,0.319-11.411,0.371-15.596,2.455c-1.755-2.078-4.193-3.229-7.6-3.229c-5.407,0-9.75-4.839-9.75-0.583
		c0,2.936,2.207,11.783,5.278,13.081c-3.289,4.825-2.963,10.736-2.612,16.836c0.338,5.857,5.25,12.62,12.667,18.253
		c2.642,2.007,4.7,9.58,8.215,12.68c2.505,2.21,8.339,4.13,11.727,4.241c4.85,0.159,9.523-2.507,12.1-4.632
		c1.667-1.375,3.575-3.993,5.369-8.218c2.964-6.983,13.673-11.115,15.339-22.074c0.534-3.513,0.154-14.925-1.298-16.873
		C84.377,33.818,85.25,24.26,85.25,21.167z"/>
	<path style="fill-rule:evenodd;clip-rule:evenodd;fill:#FFFFFF;" d="M83.333,23.75c-3.917,5.333-6.917,6.583-9.676,6.581
		c-4.374-3.229-11.582-4.082-23.281-4.082c-11.186,0-18.364,1.135-22.985,4.164c-3.641-0.08-6.558-2.08-10.391-7.08
		c-0.875,1.688,0.542,9.708,7.486,9.39c-6.161,6.019-5.282,13.944-5.282,16.889c0,13,9.837,13.587,14.533,21.054
		c4.359,6.926,4.846,12.325,16.388,12.213c10.409,0.33,12.046-6.856,16.406-13.671c4.749-7.432,12.66-7.181,13.318-19.433
		c0.371-6.919-0.091-12.869-3.751-17.178C82.636,34.154,83.874,23.013,83.333,23.75z"/>
	<path style="fill-rule:evenodd;clip-rule:evenodd;" d="M57.935,40.969c-0.72-0.9-0.236-2.925-0.359-4.956
		c-2.085,1.942-4.198,11.961-2.688,17.354c0.457,1.632,7.137,0.561,10.634,2.802c-1.188,1.521-2.644,0.648-3.238,2.913
		c1.059-0.82,4.51-1.281,4.772-1.099c-0.31,2.84-3.841,3.531-5.688,5.514c2.216-0.732,4.434-1.466,7.046-2.328
		c-0.316,3.524-4.175,3.385-5.898,5.29c1.97-0.713,3.943-1.426,6.017-2.177c0.062,0.807-2.781,2.837-2.781,2.837
		s5.865-1.781,4.518-7.607c-0.653-2.817-3.05-4.386-6.863-5.699c4.651-0.611,9.476-9.29,12.721-11.062
		C68.188,40.688,63.312,40.062,57.935,40.969z"/>
	<path style="fill-rule:evenodd;clip-rule:evenodd;" d="M40.753,39.583c0.715-0.894,0.091-3.195,0.214-5.21
		c2.069,1.927,7.051,10.364,3.029,18.993c-0.708,1.523-6.858,1.122-10.58,2.78c1.178,1.51,2.621,0.643,3.212,2.891
		c-1.051-0.812-4.474-1.271-4.734-1.09c0.308,2.815,3.809,3.504,5.645,5.469c-2.198-0.726-4.399-1.454-6.992-2.308
		c0.315,3.494,4.144,3.356,5.853,5.246c-1.954-0.708-3.913-1.413-5.967-2.158c-0.064,0.798,2.192,2.922,2.192,2.922
		s-5.254-1.876-3.917-7.654c0.648-2.794,1.147-4.025,4.932-5.327c-4.614-0.607-8.695-12.042-12.056-12.47
		C27.667,37.333,33.875,38.562,40.753,39.583z"/>
	<path style="fill:none;" d="M34.283,45.405c0,1.689,1.37,3.061,3.06,3.061c1.691,0,3.061-1.372,3.061-3.061
		c0-0.247-0.037-0.485-0.093-0.715l-5.269-1.282C34.576,43.945,34.283,44.638,34.283,45.405z"/>
	<path style="fill:none;" d="M37.344,42.347c-0.922,0-1.74,0.416-2.301,1.061l5.269,1.282
		C39.989,43.347,38.788,42.347,37.344,42.347z"/>
	<path style="fill:#FFFFFF;" d="M40.312,44.69c0.055,0.23,0.093,0.468,0.093,0.715c0,1.689-1.37,3.061-3.061,3.061
		c-1.69,0-3.06-1.372-3.06-3.061c0-0.768,0.293-1.461,0.76-1.997l-2.781-0.677c-0.422,0.799-0.663,1.708-0.663,2.674
		c0,3.171,2.572,5.745,5.744,5.745c3.174,0,5.747-2.574,5.747-5.745c0-0.013-0.002-0.026-0.002-0.039L40.312,44.69z"/>
	<path style="fill:none;" d="M62.834,42.583c-1.444,0-2.649,1.015-2.951,2.368l5.705-0.588
		C65.112,43.316,64.061,42.583,62.834,42.583z"/>
	<path style="fill:none;" d="M59.806,45.611c0,1.672,1.357,3.026,3.028,3.026c1.674,0,3.029-1.354,3.029-3.026
		c0-0.446-0.102-0.866-0.276-1.248l-5.705,0.588C59.835,45.164,59.806,45.384,59.806,45.611z"/>
	<path style="fill:#FFFFFF;" d="M65.588,44.364c0.173,0.381,0.276,0.802,0.276,1.248c0,1.672-1.355,3.026-3.029,3.026
		c-1.671,0-3.028-1.354-3.028-3.026c0-0.227,0.029-0.447,0.077-0.66l-2.714,0.28c-0.008,0.126-0.019,0.252-0.019,0.38
		c0,3.139,2.548,5.683,5.685,5.683c3.143,0,5.688-2.544,5.688-5.683c0-0.53-0.078-1.041-0.213-1.528L65.588,44.364z"/>
	<path style="fill:none;" d="M45.255,74.563c0.729,0.147,1.955,0.474,3.067,0.692c0.027-0.013,0.065-0.005,0.112,0.019
		c0.42,0.082,0.815,0.14,1.165,0.168c0.345-0.028,0.739-0.086,1.158-0.165c0.046-0.027,0.087-0.034,0.116-0.019
		c1.116-0.22,2.349-0.547,3.079-0.694c0.781,0.166,1.665,1.037,1.665,1.037s0.993-2.77,0.198-3.441
		c-0.838-0.708-6.111,0.664-6.111,0.664s-5.389-1.372-6.225-0.664c-0.796,0.672,0.14,3.441,0.14,3.441S44.477,74.729,45.255,74.563z
		"/>
	<path style="fill:none;" d="M54.822,81.148l-1.913-1.497L51.047,82h-2.91l-1.864-2.242l-1.915,1.031l-1.739-3.847
		c0,0-0.438,1.999-0.536,3.763l0.418,0.502l-0.418-0.502c-0.051,0.927-0.011,1.79,0.241,2.263c0.405,0.768,3.859,1.729,7.088,1.729
		c3.972,0,7.04-0.993,7.446-1.76c0.261-0.493,0.296-1.381,0.235-2.318l-0.341,0.504l0.341-0.504c-0.109-1.678-0.529-3.51-0.529-3.51
		L54.822,81.148z"/>
	<path d="M42.618,76.942l1.739,3.847l1.915-1.031L48.137,82h2.91l1.862-2.349l1.913,1.497l1.74-4.038c0,0,0.446,3.4,0.555,5.077
		L60.938,80c-0.357-1.985-1.687-9.486-2.179-10.755c-0.68-1.759-7.243-1.766-8.16-1.871c0,0,1.029-2.577,1.618-3.443
		c1.294-1.905,3.264-0.553,3.312-3.557c0.043-2.632-2.976,0.082-5.837,0.082c-2.861,0-5.957-2.714-5.915-0.082
		c0.049,3.004,1.949,1.651,3.243,3.557c0.588,0.866,1.741,3.443,1.741,3.443c-2.756,0.106-7.29-0.012-7.969,1.745
		c-0.567,1.459-1.816,9.304-2.231,11.006l3.5,2.25C42.16,80.61,42.618,76.942,42.618,76.942z M43.48,72.159
		c0.836-0.708,6.225,0.664,6.225,0.664s5.273-1.372,6.111-0.664c0.795,0.672-0.198,3.441-0.198,3.441s-0.884-0.871-1.665-1.037
		c-0.73,0.147-1.963,0.475-3.079,0.694c-0.029-0.015-0.07-0.008-0.116,0.019c-0.419,0.079-0.814,0.137-1.158,0.165
		c-0.35-0.028-0.745-0.086-1.165-0.168c-0.047-0.023-0.085-0.031-0.112-0.019c-1.112-0.219-2.338-0.545-3.067-0.692
		c-0.778,0.166-1.635,1.037-1.635,1.037S42.685,72.831,43.48,72.159z"/>
</g>
</svg>
