<?xml version="1.0" encoding="utf-8"?>
<!-- Generator: Adobe Illustrator 19.1.0, SVG Export Plug-In . SVG Version: 6.00 Build 0)  -->
<!DOCTYPE svg PUBLIC "-//W3C//DTD SVG 1.1//EN" "http://www.w3.org/Graphics/SVG/1.1/DTD/svg11.dtd">
<svg version="1.1" xmlns="http://www.w3.org/2000/svg" xmlns:xlink="http://www.w3.org/1999/xlink" x="0px" y="0px"
	 viewBox="0 0 100 100" style="enable-background:new 0 0 100 100;" xml:space="preserve">
<g id="bg" style="display:none;">
	<g style="display:inline;">
		<g>
			<path style="fill:#3FB4FF;" d="M100,49.998C100,77.607,77.62,100,50.006,100C22.399,100,0,77.607,0,49.998
				C0,22.404,22.399,0,50.006,0C77.62,0,100,22.404,100,49.998z"/>
		</g>
	</g>
</g>
<g id="bg_copy" style="display:none;">
</g>
<g id="animal">
</g>
<g id="vorlage">
	<path d="M71.429,33.878c-2.227-1.591-0.079-2.625-0.079-2.625s2.864-0.636,4.057-3.579c1.193-2.943-1.909-4.613-3.897-6.681
		c-1.366-1.421-0.592-2.391,0.026-2.859c0.238,0.196,0.543,0.314,0.876,0.314c0.761,0,1.379-0.617,1.379-1.379
		c0-0.761-0.617-1.379-1.379-1.379c-0.594,0-1.099,0.377-1.293,0.904c-0.75,0.109-1.358,0.343-1.358,0.343
		c-0.297-0.382-0.3-1.037-0.238-1.564c0.58-0.163,1.006-0.694,1.006-1.326c0-0.761-0.617-1.379-1.379-1.379
		c-0.761,0-1.379,0.617-1.379,1.379c0,0.27,0.079,0.521,0.213,0.733c-0.262,1.047,0.026,1.918,0.026,1.918l-1.719-2.132
		c0.065-0.16,0.102-0.335,0.102-0.519c0-0.761-0.617-1.379-1.379-1.379c-0.762,0-1.379,0.617-1.379,1.379
		c0,0.709,0.535,1.292,1.224,1.369c0.845,1.315,1.878,1.68,1.878,1.68c-0.53,0.059-1.799-0.274-2.424-0.451
		c-0.234-0.426-0.688-0.715-1.208-0.715c-0.762,0-1.379,0.617-1.379,1.379c0,0.761,0.617,1.379,1.379,1.379
		c0.278,0,0.536-0.083,0.753-0.225c1.298,0.377,3.118,0.543,3.118,0.543s4.534,5.011,3.977,7c-0.557,1.989-4.454,3.261-4.454,3.261
		c-2.864-6.522-7.716-7.477-7.716-7.477c-8.193-3.738-13.999-4.772-15.749-2.068c-1.75,2.704,9.147,12.727,9.147,12.727
		s2.148,2.466,6.682,3.818c4.534,1.352,3.738,4.932,3.738,4.932s-0.079,3.301-0.597,4.415c-0.517,1.114-1.67-0.597-2.784-1.472
		c-0.496-0.39-0.621-1.024-0.607-1.607c0.666-0.098,1.177-0.669,1.177-1.362c0-0.762-0.617-1.379-1.379-1.379
		c-0.761,0-1.379,0.617-1.379,1.379c0,0.523,0.291,0.978,0.72,1.212c-0.156,0.264-0.405,0.494-0.8,0.605
		c-0.625,0.176-0.981-0.319-1.182-0.869c0.405-0.24,0.678-0.681,0.678-1.186c0-0.762-0.617-1.379-1.379-1.379
		c-0.762,0-1.379,0.617-1.379,1.379c0,0.612,0.399,1.13,0.951,1.31c0.071,0.308,0.169,0.597,0.282,0.824
		c0.318,0.636,0.119,0.915,0.119,0.915c-0.273,0.637-1.25,0.206-2.035-0.279c0.012-0.073,0.02-0.148,0.02-0.225
		c0-0.762-0.617-1.379-1.379-1.379c-0.762,0-1.379,0.617-1.379,1.379c0,0.761,0.617,1.379,1.379,1.379
		c0.342,0,0.655-0.125,0.896-0.332c1.335,0.522,1.494,1.205,1.343,1.735c-0.081-0.015-0.165-0.024-0.251-0.024
		c-0.761,0-1.379,0.617-1.379,1.379c0,0.761,0.617,1.379,1.379,1.379c0.762,0,1.379-0.617,1.379-1.379
		c0-0.237-0.06-0.459-0.165-0.654c1.682-1.23,2.896-0.274,2.896-0.274c8.352,3.182,3.579,13.363,2.227,15.431
		c-1.352,2.068-1.909-1.193-1.909-1.193s-0.557-2.625-1.113-3.5c-0.557-0.875-2.943,0.159-4.375,1.67
		c-1.432,1.511-3.659,2.148-5.17,1.829c-0.829-0.175-0.892-1.116-0.779-1.929c0.653-0.109,1.151-0.675,1.151-1.358
		c0-0.761-0.617-1.379-1.379-1.379c-0.761,0-1.379,0.617-1.379,1.379c0,0.424,0.192,0.803,0.493,1.056l-0.652,1.118
		c-0.341-0.298-0.886-0.732-1.319-1.072c0.012-0.074,0.02-0.15,0.02-0.227c0-0.762-0.617-1.379-1.379-1.379
		c-0.761,0-1.379,0.617-1.379,1.379c0,0.761,0.617,1.379,1.379,1.379c0.049,0,0.098-0.003,0.146-0.008
		c0.399,0.515,0.862,1.296,0.862,2.155c0,0.887-0.931,1.116-1.7,1.154c-0.232-0.434-0.689-0.73-1.216-0.73
		c-0.761,0-1.379,0.617-1.379,1.379c0,0.761,0.617,1.379,1.379,1.379c0.398,0,0.755-0.169,1.006-0.438
		c2.335,0.244,5.41-0.277,5.41-0.277c-0.138,1.422,0.148,2.657,0.414,3.45c-0.208,0.241-0.335,0.555-0.335,0.899
		c0,0.761,0.617,1.379,1.379,1.379c0.762,0,1.379-0.617,1.379-1.379c0-0.553-0.326-1.028-0.795-1.248
		c-0.029-0.413-0.053-0.871-0.053-1.271c0-1.034,2.386-2.227,2.386-2.227c1.909-1.352,2.625-0.398,2.386,1.114
		c-0.239,1.511,0.477,5.011,0.477,5.011s-1.75,1.829-11.215,2.625c-9.465,0.795-17.976-9.466-18.772-20.045
		c-0.795-10.579,9.465-14.954,9.465-14.954s3.182-0.875,2.943-2.227c-0.239-1.352-2.943-0.398-2.943-0.398
		c-8.829,2.068-14.795,10.579-14.954,17.738c-0.159,7.159,1.193,15.829,12.17,23.385c10.977,7.557,26.328,2.466,26.328,2.466
		s3.897-1.511,4.772,0c0.875,1.511-1.432,2.227-1.432,2.227c-3.738,1.432-3.659,3.023-3.659,3.023l-1.21,3.86
		c-0.064-0.009-0.129-0.015-0.195-0.015c-0.761,0-1.379,0.617-1.379,1.379c0,0.761,0.617,1.379,1.379,1.379
		c0.761,0,1.379-0.617,1.379-1.379c0-0.257-0.072-0.497-0.194-0.703c0.396-0.684,1.024-1.546,1.653-1.497
		c0.659,0.051,0.833,1.617,0.873,2.748c-0.511,0.202-0.873,0.699-0.873,1.282c0,0.761,0.617,1.379,1.379,1.379
		c0.761,0,1.379-0.617,1.379-1.379c0-0.574-0.351-1.066-0.85-1.273c-0.023-0.615,0.156-1.169,0.559-1.723
		c0.39-0.536,1.436,0.241,2.188,0.924c-0.076,0.171-0.12,0.361-0.12,0.561c0,0.761,0.617,1.379,1.379,1.379
		c0.762,0,1.379-0.617,1.379-1.379c0-0.761-0.617-1.379-1.379-1.379c-0.243,0-0.472,0.064-0.67,0.174
		c-0.616-0.436-1.215-1.062-0.868-1.712c0.329-0.617,1.02-0.681,1.611-0.598c0.107,0.655,0.674,1.155,1.359,1.155
		c0.761,0,1.379-0.617,1.379-1.379c0-0.761-0.617-1.379-1.379-1.379c-0.473,0-0.889,0.238-1.138,0.601
		c-0.358-0.109-0.835-0.269-1.832-0.468c-1.988-0.398,0.398-1.511,0.398-1.511c2.307-0.477,3.818-1.829,3.818-1.829
		c2.545-2.307,1.989-6.204,1.114-7.318c-0.875-1.114,0-2.386,0-2.386s10.261-8.909,11.454-18.613
		C80.418,43.264,73.656,35.469,71.429,33.878z"/>
	<g>
		<circle style="fill:#FFFFFF;" cx="51.9" cy="29.174" r="3.812"/>
		<circle cx="51.899" cy="29.174" r="2.03"/>
	</g>
	<g>
		<circle style="fill:#FFFFFF;" cx="56.9" cy="23.174" r="3.062"/>
		<circle cx="56.9" cy="23.174" r="1.631"/>
	</g>
</g>
</svg>
