<?xml version="1.0" encoding="utf-8"?>
<!-- Generator: Adobe Illustrator 17.1.0, SVG Export Plug-In . SVG Version: 6.00 Build 0)  -->
<!DOCTYPE svg PUBLIC "-//W3C//DTD SVG 1.1//EN" "http://www.w3.org/Graphics/SVG/1.1/DTD/svg11.dtd">
<svg version="1.1" xmlns="http://www.w3.org/2000/svg" xmlns:xlink="http://www.w3.org/1999/xlink" x="0px" y="0px"
	 viewBox="0 0 100 100" style="enable-background:new 0 0 100 100;" xml:space="preserve">
<g id="bg" style="display:none;">
	<g style="display:inline;">
		<g>
			<path style="fill:#3FB4FF;" d="M100,49.998C100,77.607,77.62,100,50.006,100C22.399,100,0,77.607,0,49.998
				C0,22.404,22.399,0,50.006,0C77.62,0,100,22.404,100,49.998z"/>
		</g>
	</g>
</g>
<g id="bg_copy" style="display:none;">
	<g style="display:inline;">
		<g>
			<path style="fill:#F1861E;" d="M100,49.998C100,77.607,77.62,100,50.006,100C22.399,100,0,77.607,0,49.998
				C0,22.404,22.399,0,50.006,0C77.62,0,100,22.404,100,49.998z"/>
		</g>
	</g>
</g>
<g id="animal">
	<g>
		<g>
			<path d="M69.812,25.858c-2.387,0-4.644,0.808-6.654,2.243c-3.752-1.491-8.054-2.339-12.627-2.339
				c-4.854,0-9.398,0.959-13.309,2.625c-2.104-1.612-4.496-2.529-7.035-2.529C21.799,25.858,15,35.811,15,48.09
				c0,6.775,2.07,12.844,5.336,16.921c1.486,1.854,9.165,0.173,15.633-3.822c0.764,0.368,7.073,2.404,7.407,2.473
				c0.559,1.607,1.52,2.962,2.729,3.898c-0.292,4.981-1.15,10.365-2.955,12.873c-2.156,2.994-1.893,5.286-6.767,2.665L32.5,91.682
				c2.492,1.342,7.017-0.108,9.475-0.573c5.36-1.016,6.11-3.907,9.113-8.457c3.361-5.091,2.781-9.521,2.932-15.192
				c1.1-0.892,1.981-2.135,2.528-3.597c0.372-0.064,7.048-1.984,7.945-2.394c6.366,3.794,13.72,5.352,15.17,3.542
				C82.93,60.934,85,54.865,85,48.09C85,35.811,78.2,25.858,69.812,25.858z"/>
			<g>
				<g>
					<circle style="fill:#FFFFFF;" cx="41.85" cy="43.663" r="6.904"/>
					<path d="M45.526,43.663c0,2.03-1.648,3.678-3.678,3.678c-2.03,0-3.677-1.647-3.677-3.678c0-2.028,1.646-3.676,3.677-3.676
						C43.879,39.987,45.526,41.635,45.526,43.663z"/>
				</g>
				<g>
					<circle style="fill:#FFFFFF;" cx="56.671" cy="43.872" r="6.033"/>
					<circle cx="56.671" cy="43.872" r="3.213"/>
				</g>
			</g>
		</g>
		<g>
			<g>
				<path style="fill:#FFFFFF;" d="M33.457,75.465C37.928,69.245,38.967,61,38.916,58h4.497C43.422,58,42.77,73.675,33.457,75.465z"
					/>
			</g>
			<g>
				<path style="fill:#FFFFFF;" d="M66.543,75.465C62.072,69.245,61.033,61,61.084,58h-4.496C56.578,58,57.229,73.675,66.543,75.465
					z"/>
			</g>
		</g>
	</g>
</g>
<g id="nyt_x5F_exporter_x5F_info" style="display:none;">
</g>
</svg>
