<?xml version="1.0" encoding="utf-8"?>
<!-- Generator: Adobe Illustrator 17.1.0, SVG Export Plug-In . SVG Version: 6.00 Build 0)  -->
<!DOCTYPE svg PUBLIC "-//W3C//DTD SVG 1.1//EN" "http://www.w3.org/Graphics/SVG/1.1/DTD/svg11.dtd">
<svg version="1.1" xmlns="http://www.w3.org/2000/svg" xmlns:xlink="http://www.w3.org/1999/xlink" x="0px" y="0px"
	 viewBox="0 0 100 100" style="enable-background:new 0 0 100 100;" xml:space="preserve">
<g id="bg" style="display:none;">
	<g style="display:inline;">
		<g>
			<path style="fill:#3FB4FF;" d="M100,49.998C100,77.607,77.62,100,50.006,100C22.399,100,0,77.607,0,49.998
				C0,22.404,22.399,0,50.006,0C77.62,0,100,22.404,100,49.998z"/>
		</g>
	</g>
</g>
<g id="bg_copy" style="display:none;">
	<g style="display:inline;">
		<g>
			<path style="fill:#F1861E;" d="M100,49.998C100,77.607,77.62,100,50.006,100C22.399,100,0,77.607,0,49.998
				C0,22.404,22.399,0,50.006,0C77.62,0,100,22.404,100,49.998z"/>
		</g>
	</g>
</g>
<g id="animal">
	<ellipse cx="50.5" cy="68.281" rx="31.504" ry="16.476"/>
	<g>
		<path style="fill:#FFFFFF;" d="M69.894,69.91c0,4.731-1.945,14.966-4.346,14.966c-2.401,0-4.349-10.234-4.349-14.966
			c0-4.731,1.947-8.566,4.349-8.566C67.948,61.345,69.894,65.179,69.894,69.91z"/>
		<path style="fill:#FFFFFF;" d="M39.035,69.91c0,4.731-1.894,14.966-4.231,14.966c-2.338,0-4.232-10.234-4.232-14.966
			c0-4.731,1.894-8.566,4.232-8.566C37.142,61.345,39.035,65.179,39.035,69.91z"/>
	</g>
	<ellipse cx="50.5" cy="36.631" rx="23.518" ry="14.934"/>
	<ellipse cx="50.5" cy="44.672" rx="23.518" ry="12.327"/>
	<ellipse cx="50.5" cy="49.997" rx="24.931" ry="13.067"/>
	<path d="M82.087,59.958c0,9.889-14.142,9.177-31.587,9.177c-17.445,0-31.587,0.712-31.587-9.177
		c0-9.89,14.142-17.907,31.587-17.907C67.945,42.051,82.087,50.068,82.087,59.958z"/>
	<g>
		<g>
			<circle style="fill:#FFFFFF;" cx="41.81" cy="36.553" r="8.617"/>
			<path d="M46.399,36.553c0,2.533-2.057,4.591-4.591,4.591c-2.535,0-4.589-2.058-4.589-4.591c0-2.532,2.054-4.588,4.589-4.588
				C44.343,31.965,46.399,34.021,46.399,36.553z"/>
		</g>
		<g>
			<path style="fill:#FFFFFF;" d="M67.839,36.813c0,4.155-3.37,7.526-7.53,7.526c-4.156,0-7.527-3.371-7.527-7.526
				c0-4.161,3.371-7.532,7.527-7.532C64.469,29.281,67.839,32.652,67.839,36.813z"/>
			<circle cx="60.31" cy="36.814" r="4.01"/>
		</g>
	</g>
	<circle style="fill:#FFFFFF;" cx="32.029" cy="53.071" r="4.751"/>
	<circle style="fill:#FFFFFF;" cx="68.415" cy="54.846" r="4.751"/>
	<path style="fill:#FFFFFF;" d="M77.602,60.46c0,6.275-12.134,3.861-27.102,3.861c-14.969,0-27.103,2.414-27.103-3.861
		c0-6.276,12.134-11.364,27.103-11.364C65.469,49.096,77.602,54.184,77.602,60.46z"/>
	<circle cx="32.312" cy="53.527" r="3.11"/>
	<circle cx="67.81" cy="55.303" r="3.11"/>
	<path d="M29.977,23.067c0-3.192,0.239-5.78,2.724-5.78c2.481,0,6.271,2.588,6.271,5.78c0,3.194-2.014,5.782-4.496,5.782
		C31.992,28.85,29.977,26.262,29.977,23.067z"/>
	<path d="M62.776,24.627c0-3.564,3.947-6.453,6.627-6.453c2.679,0,3.077,2.89,3.077,6.453c0,3.565-2.173,6.454-4.852,6.454
		C64.949,31.081,62.776,28.192,62.776,24.627z"/>
</g>
<g id="nyt_x5F_exporter_x5F_info" style="display:none;">
</g>
</svg>
