<?xml version="1.0" encoding="utf-8"?>
<!-- Generator: Adobe Illustrator 17.1.0, SVG Export Plug-In . SVG Version: 6.00 Build 0)  -->
<!DOCTYPE svg PUBLIC "-//W3C//DTD SVG 1.1//EN" "http://www.w3.org/Graphics/SVG/1.1/DTD/svg11.dtd">
<svg version="1.1" xmlns="http://www.w3.org/2000/svg" xmlns:xlink="http://www.w3.org/1999/xlink" x="0px" y="0px"
	 viewBox="0 0 100 100" style="enable-background:new 0 0 100 100;" xml:space="preserve">
<g id="bg" style="display:none;">
	<g style="display:inline;">
		<g>
			<path style="fill:#3FB4FF;" d="M100,49.998C100,77.607,77.62,100,50.006,100C22.399,100,0,77.607,0,49.998
				C0,22.404,22.399,0,50.006,0C77.62,0,100,22.404,100,49.998z"/>
		</g>
	</g>
</g>
<g id="bg_copy" style="display:none;">
	<g style="display:inline;">
		<g>
			<path style="fill:#F1861E;" d="M100,49.998C100,77.607,77.62,100,50.006,100C22.399,100,0,77.607,0,49.998
				C0,22.404,22.399,0,50.006,0C77.62,0,100,22.404,100,49.998z"/>
		</g>
	</g>
</g>
<g id="animal">
	<path style="fill-rule:evenodd;clip-rule:evenodd;" d="M89.802,53.861c-1.96-0.547-4.621-0.011-5.938,0.346
		c-0.592-1.034-2.477-3.468-3.783-4.207c-3.759-2.127-4.18-4.142-5.097-3.357c-0.915,0.783,0.301,7.066,6.264,10.073
		c-0.529,1.852-2.596,4.318-8.312,4.451c-6.681,0.156-8.546-7.003-8.892-12.407c-0.687-12.048-21.62-18.771-30.657-19.245
		c-14.81-0.776-19.651,9.254-19.651,20.465c0,4.525-0.287,8.74,0.627,12.288l20.385,0.413l1.674,1.283l-21.13,0.813
		c2.363,4.702,8.143,7.764,22.134,8.021c0,0-0.033,0.022-0.025,0.022c18.366,0.291,27.375-1.087,35.536-1.865
		c9.601-0.914,13.057-10.146,13.91-13.044c3.356,0.458,9.47-0.952,9.463-2.157C96.301,54.547,93.768,54.967,89.802,53.861z"/>
	<g>
		<circle style="fill:#FFFFFF;" cx="37.52" cy="54.097" r="5.405"/>
		<path d="M40.398,54.097c0,1.59-1.29,2.88-2.879,2.88c-1.591,0-2.879-1.29-2.879-2.88c0-1.587,1.288-2.877,2.879-2.877
			C39.108,51.22,40.398,52.51,40.398,54.097z"/>
	</g>
</g>
<g id="nyt_x5F_exporter_x5F_info" style="display:none;">
</g>
</svg>
