<?xml version="1.0" encoding="utf-8"?>
<!-- Generator: Adobe Illustrator 18.1.1, SVG Export Plug-In . SVG Version: 6.00 Build 0)  -->
<!DOCTYPE svg PUBLIC "-//W3C//DTD SVG 1.1//EN" "http://www.w3.org/Graphics/SVG/1.1/DTD/svg11.dtd">
<svg version="1.1" id="Layer_1" xmlns="http://www.w3.org/2000/svg" xmlns:xlink="http://www.w3.org/1999/xlink" x="0px" y="0px"
	 viewBox="0 0 460 180" enable-background="new 0 0 460 180" xml:space="preserve">
<g>
	<g>
		<g>
			<path fill="#3C3C3B" d="M67.6,138.7c-2.2,0-4,0.9-5.3,2.8c-1.3,1.8-1.9,4.4-1.9,7.6c0,6.7,2.6,10.1,7.7,10.1c1.5,0,3-0.2,4.5-0.6
				c1.5-0.4,2.9-0.9,4.4-1.6v8c-2.9,1.3-6.2,1.9-9.9,1.9c-5.3,0-9.3-1.5-12.1-4.6c-2.8-3.1-4.2-7.5-4.2-13.3c0-3.6,0.7-6.8,2-9.5
				c1.4-2.7,3.3-4.9,5.9-6.3c2.6-1.5,5.6-2.2,9-2.2c3.8,0,7.4,0.8,10.8,2.5l-2.9,7.4c-1.3-0.6-2.6-1.1-3.9-1.5
				C70.4,139,69.1,138.7,67.6,138.7z"/>
			<path fill="#3C3C3B" d="M105.2,166.5l-1.7-6.6H92.2l-1.8,6.6H80l11.4-35.1H104l11.6,35.1H105.2z M101.6,152.2l-1.5-5.7
				c-0.4-1.3-0.8-2.9-1.3-5c-0.5-2-0.8-3.5-1-4.4c-0.1,0.8-0.4,2.2-0.8,4c-0.4,1.9-1.4,5.5-2.8,11H101.6z"/>
			<path fill="#3C3C3B" d="M128.8,153.7v12.7h-9.4v-35h11.5c9.5,0,14.3,3.4,14.3,10.3c0,4.1-2,7.2-5.9,9.4l10.2,15.2h-10.7
				l-7.4-12.7H128.8z M128.8,146.6h1.8c3.3,0,5-1.5,5-4.4c0-2.4-1.6-3.6-4.9-3.6h-1.9V146.6z"/>
			<path fill="#3C3C3B" d="M166.6,146h15.1v18.8c-4.1,1.4-8.6,2.1-13.5,2.1c-5.4,0-9.6-1.6-12.5-4.7c-2.9-3.1-4.4-7.6-4.4-13.4
				c0-5.6,1.6-10,4.8-13.2c3.2-3.1,7.7-4.7,13.5-4.7c2.2,0,4.3,0.2,6.2,0.6c2,0.4,3.7,0.9,5.1,1.6l-3,7.4c-2.5-1.2-5.3-1.9-8.3-1.9
				c-2.8,0-4.9,0.9-6.4,2.7c-1.5,1.8-2.3,4.4-2.3,7.7c0,3.3,0.7,5.8,2,7.5c1.4,1.7,3.3,2.6,5.9,2.6c1.4,0,2.7-0.1,3.9-0.4v-5.5h-6.2
				V146z"/>
			<path fill="#3C3C3B" d="M221.5,148.9c0,5.9-1.4,10.4-4.3,13.4c-2.9,3.1-7.1,4.6-12.7,4.6c-5.5,0-9.7-1.5-12.6-4.6
				c-2.9-3.1-4.4-7.6-4.4-13.4c0-5.8,1.5-10.3,4.4-13.3c2.9-3.1,7.1-4.6,12.7-4.6c5.6,0,9.8,1.5,12.7,4.6
				C220.1,138.6,221.5,143,221.5,148.9z M197.4,148.9c0,6.8,2.4,10.1,7.1,10.1c2.4,0,4.2-0.8,5.3-2.5c1.2-1.6,1.7-4.2,1.7-7.7
				c0-3.5-0.6-6.1-1.8-7.7c-1.2-1.7-2.9-2.5-5.2-2.5C199.8,138.7,197.4,142.1,197.4,148.9z"/>
		</g>
		<g>
			<path fill="#3C3C3B" d="M275.2,166.3v-22.6c0-2.8-0.6-4.8-1.8-6.2c-1.2-1.4-3-2.1-5.5-2.1c-3.3,0-5.7,0.9-7.3,2.8
				c-1.6,1.9-2.3,4.8-2.3,8.7v19.4H253v-22.6c0-2.8-0.6-4.8-1.8-6.2c-1.2-1.4-3-2.1-5.6-2.1c-3.3,0-5.7,1-7.2,3
				c-1.5,2-2.3,5.2-2.3,9.7v18.2h-5.3v-34.8h4.3l0.9,4.8h0.3c1-1.7,2.4-3,4.2-4c1.8-1,3.8-1.4,6.1-1.4c5.4,0,9,2,10.7,5.9h0.3
				c1-1.8,2.5-3.3,4.5-4.3c2-1.1,4.2-1.6,6.7-1.6c3.9,0,6.9,1,8.8,3c2,2,2.9,5.3,2.9,9.7v22.7H275.2z"/>
			<path fill="#3C3C3B" d="M306,166.9c-5.1,0-9.2-1.6-12.2-4.7c-3-3.1-4.5-7.5-4.5-13c0-5.6,1.4-10.1,4.1-13.4
				c2.8-3.3,6.5-4.9,11.1-4.9c4.4,0,7.8,1.4,10.3,4.3c2.5,2.9,3.8,6.6,3.8,11.3v3.3h-24c0.1,4.1,1.1,7.2,3.1,9.3
				c2,2.1,4.7,3.2,8.3,3.2c3.7,0,7.4-0.8,11.1-2.3v4.7c-1.9,0.8-3.6,1.4-5.3,1.7C310.3,166.8,308.3,166.9,306,166.9z M304.6,135.3
				c-2.8,0-5,0.9-6.7,2.7c-1.7,1.8-2.6,4.3-2.9,7.6h18.2c0-3.3-0.7-5.9-2.2-7.6C309.4,136.2,307.3,135.3,304.6,135.3z"/>
			<path fill="#3C3C3B" d="M351.4,161.6h-0.3c-2.4,3.5-6.1,5.3-10.9,5.3c-4.5,0-8.1-1.6-10.6-4.7c-2.5-3.1-3.8-7.5-3.8-13.3
				c0-5.7,1.3-10.2,3.8-13.4c2.5-3.2,6.1-4.8,10.6-4.8c4.7,0,8.3,1.7,10.8,5.1h0.4l-0.2-2.5l-0.1-2.4v-14.2h5.3v49.4h-4.3
				L351.4,161.6z M340.9,162.5c3.6,0,6.2-1,7.8-2.9c1.6-2,2.4-5.1,2.4-9.5V149c0-4.9-0.8-8.4-2.5-10.5c-1.6-2.1-4.3-3.2-7.9-3.2
				c-3.1,0-5.5,1.2-7.1,3.6c-1.6,2.4-2.5,5.8-2.5,10.2c0,4.4,0.8,7.8,2.4,10.1C335.4,161.4,337.7,162.5,340.9,162.5z"/>
			<path fill="#3C3C3B" d="M367.1,122.1c0-1.2,0.3-2.1,0.9-2.6c0.6-0.6,1.3-0.8,2.2-0.8c0.8,0,1.6,0.3,2.2,0.9
				c0.6,0.6,0.9,1.4,0.9,2.6c0,1.2-0.3,2.1-0.9,2.6c-0.6,0.6-1.3,0.9-2.2,0.9c-0.9,0-1.6-0.3-2.2-0.9
				C367.4,124.2,367.1,123.3,367.1,122.1z M372.8,166.3h-5.3v-34.8h5.3V166.3z"/>
			<path fill="#3C3C3B" d="M405.4,166.3l-1-4.9h-0.3c-1.7,2.2-3.5,3.7-5.2,4.4c-1.7,0.8-3.9,1.2-6.5,1.2c-3.4,0-6.1-0.9-8.1-2.7
				c-2-1.8-2.9-4.3-2.9-7.6c0-7,5.6-10.7,16.8-11l5.9-0.2v-2.2c0-2.7-0.6-4.7-1.8-6c-1.2-1.3-3.1-2-5.6-2c-2.9,0-6.2,0.9-9.8,2.7
				l-1.6-4c1.7-0.9,3.6-1.7,5.6-2.2c2-0.5,4.1-0.8,6.1-0.8c4.1,0,7.2,0.9,9.2,2.8c2,1.8,3,4.8,3,8.9v23.7H405.4z M393.5,162.6
				c3.3,0,5.9-0.9,7.7-2.7c1.9-1.8,2.8-4.3,2.8-7.6v-3.1l-5.3,0.2c-4.2,0.1-7.2,0.8-9.1,2c-1.9,1.2-2.8,2.9-2.8,5.4
				c0,1.9,0.6,3.4,1.7,4.3C389.8,162.1,391.4,162.6,393.5,162.6z"/>
		</g>
	</g>
	<g>
		<g>
			<g>
				<path fill="#3FB4FF" d="M210.5,26.3c0,7.3-5.9,13.2-13.2,13.2c-7.3,0-13.2-5.9-13.2-13.2c0-7.3,5.9-13.2,13.2-13.2
					C204.5,13.1,210.5,19,210.5,26.3z"/>
			</g>
			<g>
				<path fill="#3FB4FF" d="M242.2,26.3c0,7.3-5.9,13.2-13.2,13.2c-7.3,0-13.2-5.9-13.2-13.2c0-7.3,5.9-13.2,13.2-13.2
					C236.3,13.1,242.2,19,242.2,26.3z"/>
			</g>
			<g>
				<path fill="#3FB4FF" d="M274,26.3c0,7.3-5.9,13.2-13.2,13.2c-7.3,0-13.2-5.9-13.2-13.2c0-7.3,5.9-13.2,13.2-13.2
					C268.1,13.1,274,19,274,26.3z"/>
			</g>
		</g>
		<g>
			<g>
				<path fill="#3FB4FF" d="M210.5,58.1c0,7.3-5.9,13.2-13.2,13.2c-7.3,0-13.2-5.9-13.2-13.2c0-7.3,5.9-13.2,13.2-13.2
					C204.5,44.8,210.5,50.8,210.5,58.1z"/>
			</g>
			<g>
				<path fill="#3FB4FF" d="M242.2,58.1c0,7.3-5.9,13.2-13.2,13.2c-7.3,0-13.2-5.9-13.2-13.2c0-7.3,5.9-13.2,13.2-13.2
					C236.3,44.8,242.2,50.8,242.2,58.1z"/>
			</g>
			<g>
				<path fill="#3FB4FF" d="M274,58.1c0,7.3-5.9,13.2-13.2,13.2c-7.3,0-13.2-5.9-13.2-13.2c0-7.3,5.9-13.2,13.2-13.2
					C268.1,44.8,274,50.8,274,58.1z"/>
			</g>
		</g>
		<g>
			<g>
				<path fill="#3FB4FF" d="M210.5,89.8c0,7.3-5.9,13.2-13.2,13.2c-7.3,0-13.2-5.9-13.2-13.2c0-7.3,5.9-13.2,13.2-13.2
					C204.5,76.6,210.5,82.5,210.5,89.8z"/>
			</g>
			<g>
				<path fill="#3FB4FF" d="M242.2,89.8c0,7.3-5.9,13.2-13.2,13.2c-7.3,0-13.2-5.9-13.2-13.2c0-7.3,5.9-13.2,13.2-13.2
					C236.3,76.6,242.2,82.5,242.2,89.8z"/>
			</g>
			<g>
				<path fill="#3FB4FF" d="M274,89.8c0,7.3-5.9,13.2-13.2,13.2c-7.3,0-13.2-5.9-13.2-13.2c0-7.3,5.9-13.2,13.2-13.2
					C268.1,76.6,274,82.5,274,89.8z"/>
			</g>
		</g>
	</g>
</g>
</svg>
